<svg width="32" height="32" viewBox="0 0 32 32" fill="none" xmlns="http://www.w3.org/2000/svg">
<g id="Card">
<path id="Vector" d="M20 21.8054L20.472 21.3334M13.3333 23.1387L13.8053 22.6667M10.6666 11.1387L11.1373 10.6667M9.3333 17.8054L9.80397 17.3334M16 16.472L16.472 16M16.004 28C19.1079 27.9999 22.0911 26.7975 24.3275 24.6451C26.5639 22.4927 27.8797 19.5577 27.9986 16.456C28.0066 16.252 27.7853 16.1227 27.6013 16.2147C24.3 17.8774 22.26 16.112 22.592 13.7427C22.5976 13.6969 22.5929 13.6505 22.5781 13.6068C22.5633 13.5631 22.5389 13.5233 22.5066 13.4904C22.4743 13.4574 22.435 13.4322 22.3916 13.4166C22.3482 13.4009 22.3018 13.3953 22.256 13.4C19.3613 13.804 18.1413 12.048 18.5973 9.66137C18.6041 9.62071 18.6024 9.5791 18.5924 9.53913C18.5824 9.49915 18.5642 9.46167 18.5391 9.42902C18.5139 9.39637 18.4823 9.36925 18.4462 9.34935C18.4101 9.32945 18.3703 9.3172 18.3293 9.31337C15.6053 9.0707 15.38 5.9267 15.848 4.39337C15.9053 4.20403 15.7693 3.99337 15.572 4.00003C12.4289 4.11483 9.4564 5.45862 7.29385 7.74237C5.1313 10.0261 3.95145 13.0674 4.00805 16.2121C4.06465 19.3567 5.3532 22.3536 7.59654 24.558C9.83987 26.7625 12.8588 27.9984 16.004 28Z" stroke="#155DFC" stroke-width="2" stroke-linecap="round" stroke-linejoin="round"/>
</g>
</svg>
